<svg width="24" height="24" viewBox="0 0 24 24" fill="none" xmlns="http://www.w3.org/2000/svg">
<g clip-path="url(#clip0_157_1848)">
<path d="M10.4775 0.0703049C8.31185 0.351555 6.32904 1.18124 4.59466 2.52187C4.04622 2.94843 3.11341 3.86718 2.65872 4.42968C1.36497 6.0328 0.507161 7.92656 0.141536 9.98906C0.0102865 10.7203 -0.041276 12.4781 0.043099 13.2797C0.244661 15.15 0.896224 16.9828 1.90872 18.5391C2.3681 19.2422 2.77122 19.7437 3.39935 20.3859C5.36341 22.4016 7.8431 23.6203 10.665 23.9484C11.2931 24.0234 12.8212 24.0094 13.5009 23.9297C17.0072 23.4937 20.1384 21.5297 22.0931 18.5391C23.0775 17.0344 23.7056 15.3047 23.9306 13.5C24.0244 12.7406 24.0244 11.2641 23.9306 10.5C23.4993 7.02187 21.54 3.88124 18.5868 1.94062C17.0447 0.928118 15.329 0.299992 13.5009 0.0703049C12.7884 -0.0140705 11.1525 -0.0140705 10.4775 0.0703049ZM9.89154 8.02499C10.1447 8.15624 10.2665 8.31562 10.2993 8.56874C10.3603 9.00937 10.3415 9.03281 9.22122 10.1578L8.18529 11.2031L13.0837 11.2125C17.6259 11.2266 17.9869 11.2312 18.1275 11.3062C18.3619 11.4375 18.4837 11.6484 18.5072 11.9625C18.5259 12.1969 18.5119 12.2625 18.4087 12.4172C18.3431 12.5156 18.2118 12.6328 18.1087 12.6844C17.94 12.7687 17.729 12.7734 13.065 12.7969L8.20404 12.8203L9.16966 13.7812C9.69935 14.3109 10.1728 14.8219 10.2243 14.9156C10.3415 15.1453 10.3415 15.4922 10.2197 15.6937C10.0368 15.9891 9.65247 16.1344 9.31497 16.0312C9.15091 15.9844 8.84622 15.7031 7.3931 14.2594C6.44154 13.3125 5.62591 12.4594 5.57435 12.3656C5.47591 12.1734 5.45716 11.8875 5.53685 11.6859C5.60716 11.4891 8.98216 8.11874 9.21185 8.01093C9.46029 7.89374 9.63841 7.89843 9.89154 8.02499Z" fill="white"/>
</g>
<defs>
<clipPath id="clip0_157_1848">
<rect width="24" height="24" fill="white"/>
</clipPath>
</defs>
</svg>
