<svg width="50" height="50" viewBox="0 0 50 50" fill="none" xmlns="http://www.w3.org/2000/svg">
<rect width="50" height="50" rx="25" fill="#F3AE9F"/>
<path d="M29.4839 15.207L19.7014 18.457C13.1256 20.6561 13.1256 24.242 19.7014 26.4303L22.6047 27.3945L23.5689 30.2978C25.7572 36.8736 29.3539 36.8736 31.5422 30.2978L34.8031 20.5261C36.2547 16.1386 33.8714 13.7445 29.4839 15.207ZM29.8306 21.0353L25.7139 25.1736C25.5514 25.3361 25.3456 25.412 25.1397 25.412C24.9339 25.412 24.7281 25.3361 24.5656 25.1736C24.2514 24.8595 24.2514 24.3395 24.5656 24.0253L28.6822 19.887C28.9964 19.5728 29.5164 19.5728 29.8306 19.887C30.1447 20.2011 30.1447 20.7211 29.8306 21.0353Z" fill="#050505"/>
</svg>
