<svg width="24" height="24" viewBox="0 0 24 24" fill="none" xmlns="http://www.w3.org/2000/svg">
<path d="M9.63281 2.04376C9.23906 2.18907 9 2.55001 9 3.00001C9 3.46876 9.27188 3.84845 9.69844 3.9797C9.94688 4.0547 14.0531 4.0547 14.3016 3.9797C14.7281 3.84845 15 3.46876 15 3.00001C15 2.54064 14.7609 2.18439 14.3484 2.03907C14.0531 1.93595 9.91875 1.94064 9.63281 2.04376Z" fill="white"/>
<path d="M2.70938 5.01563C2.46563 5.09063 2.25 5.25938 2.11875 5.475C2.01562 5.65313 1.99219 5.75157 1.99219 6C1.99219 6.39844 2.15156 6.68907 2.475 6.87657L2.69531 7.00782L3.82969 7.02188L4.96875 7.03594L4.97813 13.3031L4.99219 19.5703L5.11875 19.9266C5.40469 20.7328 5.90156 21.3188 6.61406 21.6797C7.29844 22.0266 6.95625 22.0078 12 22.0078C16.2516 22.0078 16.5422 22.0031 16.8047 21.9234C17.8313 21.6094 18.5625 20.8828 18.9188 19.8281C19.0031 19.5844 19.0078 19.2656 19.0219 13.3031L19.0312 7.03594L20.1703 7.02188C21.4031 7.00782 21.4406 6.99844 21.7219 6.72188C21.9375 6.50625 22.0031 6.33282 22.0078 6C22.0078 5.60157 21.8484 5.31094 21.525 5.12344L21.3047 4.99219L12.0703 4.98282C6.98906 4.97813 2.77969 4.99219 2.70938 5.01563ZM10.35 10.1063C10.5797 10.2 10.7719 10.3875 10.8797 10.6172C10.9594 10.7906 10.9688 10.9734 10.9688 13.5C10.9688 16.5188 10.9781 16.4109 10.6266 16.7203C10.1438 17.1422 9.44063 17.0063 9.14531 16.4297L9.02344 16.2L9.00938 13.6781C9 12.0563 9.01406 11.0578 9.04688 10.8844C9.16406 10.2281 9.77344 9.8625 10.35 10.1063ZM14.5406 10.2C14.6578 10.2797 14.7844 10.4297 14.8547 10.5703L14.9766 10.8V13.5V16.2L14.8547 16.4297C14.5594 17.0063 13.8563 17.1422 13.3734 16.7203C13.0219 16.4109 13.0312 16.5141 13.0312 13.5094C13.0312 10.5797 13.0266 10.6359 13.3031 10.3406C13.6266 9.99844 14.1656 9.9375 14.5406 10.2Z" fill="white"/>
</svg>
