<svg width="33" height="32" viewBox="0 0 33 32" fill="none" xmlns="http://www.w3.org/2000/svg">
<path d="M7.77916 0.0725861C4.2108 0.679834 1.38115 3.41558 0.604873 7.00899C0.498448 7.48477 0.492188 8.12958 0.492188 16.005C0.492188 23.8805 0.498448 24.5253 0.604873 25.0011C0.97423 26.7352 1.78181 28.2188 3.0276 29.4646C4.2734 30.7104 5.75709 31.518 7.49119 31.8874C7.96697 31.9938 8.61178 32.0001 16.4872 32.0001C24.3627 32.0001 25.0075 31.9938 25.4833 31.8874C27.2174 31.518 28.701 30.7104 29.9468 29.4646C31.1926 28.2188 32.0002 26.7352 32.3696 25.0011C32.476 24.5253 32.4823 23.8805 32.4823 16.005C32.4823 8.12958 32.476 7.48477 32.3696 7.00899C32.0002 5.27489 31.1926 3.7912 29.9468 2.5454C28.7261 1.32464 27.33 0.560888 25.5333 0.122667C25.1327 0.0225029 24.3627 0.016243 16.675 0.00372314C10.0454 -0.00879669 8.15478 0.00998306 7.77916 0.0725861ZM24.8447 2.00702C26.3409 2.27621 27.449 2.85841 28.5445 3.9477C29.6338 5.04325 30.216 6.15133 30.4852 7.64754C30.6167 8.39251 30.6167 23.6175 30.4852 24.3625C30.216 25.8587 29.6338 26.9668 28.5445 28.0623C27.449 29.1516 26.3409 29.7338 24.8447 30.003C24.0997 30.1345 8.87471 30.1345 8.12974 30.003C6.63353 29.7338 5.52546 29.1516 4.42991 28.0623C3.34062 26.9668 2.75841 25.8587 2.48922 24.3625C2.35775 23.6175 2.35775 8.39251 2.48922 7.64754C2.75841 6.15133 3.34062 5.04325 4.42991 3.9477C5.50668 2.8772 6.61475 2.28873 8.06714 2.01328C8.74325 1.88807 24.1373 1.88181 24.8447 2.00702Z" fill="#F3AE9F"/>
<path d="M25.2585 4.05423C24.5573 4.19196 23.8186 4.72408 23.468 5.34385C22.9484 6.27663 23.0298 7.50991 23.6621 8.32375C24.1692 8.97482 24.8265 9.31287 25.6717 9.3567C27.0865 9.42556 28.2259 8.49904 28.4575 7.09047C28.7642 5.25621 27.1115 3.69113 25.2585 4.05423ZM26.2163 6.08256C26.2977 6.13891 26.4166 6.28915 26.4792 6.41436C26.5731 6.61469 26.5731 6.67103 26.498 6.89014C26.3979 7.17186 26.0786 7.42853 25.8344 7.42853C25.5715 7.42853 25.271 7.24072 25.1646 7.02161C25.0331 6.74616 25.0394 6.56461 25.1896 6.3142C25.415 5.94484 25.8595 5.85093 26.2163 6.08256Z" fill="#F3AE9F"/>
<path d="M15.4851 7.24065C14.377 7.37837 13.3753 7.68513 12.4238 8.18595C10.0136 9.44427 8.29199 11.7731 7.80995 14.44C7.6597 15.2413 7.6597 16.7688 7.80995 17.5701C8.46102 21.1635 11.3282 24.0307 14.9216 24.6818C15.723 24.8321 17.2505 24.8321 18.0518 24.6818C21.6452 24.0307 24.5124 21.1635 25.1635 17.5701C25.3137 16.7688 25.3137 15.2413 25.1635 14.44C24.6814 11.7731 22.9724 9.45679 20.5496 8.17969C19.8422 7.81033 18.8468 7.47228 18.0831 7.33455C17.3819 7.20934 16.1048 7.16552 15.4851 7.24065ZM17.6636 9.2502C18.1206 9.31906 19.0785 9.63208 19.523 9.85745C20.7813 10.4897 22.002 11.7105 22.6343 12.9688C22.8597 13.407 23.1727 14.3586 23.2541 14.8594C23.3417 15.4041 23.3417 16.606 23.2541 17.1507C23.1727 17.6515 22.8597 18.6031 22.6343 19.0413C22.002 20.2996 20.7813 21.5204 19.523 22.1527C19.0847 22.378 18.1332 22.691 17.6323 22.7724C17.0877 22.8601 15.8857 22.8601 15.3411 22.7724C14.8403 22.691 13.8887 22.378 13.4505 22.1527C12.1922 21.5204 10.9714 20.2996 10.3391 19.0413C10.1137 18.6031 9.80072 17.6515 9.71934 17.1507C9.63169 16.606 9.63169 15.4041 9.71934 14.8594C9.80072 14.3586 10.1137 13.407 10.3391 12.9688C11.0653 11.5227 12.4113 10.2644 13.8449 9.68216C15.1032 9.16881 16.2676 9.03735 17.6636 9.2502Z" fill="#F3AE9F"/>
</svg>
