<svg width="37" height="32" viewBox="0 0 37 32" fill="none" xmlns="http://www.w3.org/2000/svg">
<path d="M34.2119 0.0968494C33.8555 0.218042 1.66115 12.6295 1.01954 12.9004C0.370805 13.1713 -0.00702985 13.7559 9.9104e-05 14.5045C9.9104e-05 15.0605 0.192581 15.4954 0.570415 15.8019C0.74151 15.9374 2.08175 16.4721 4.80501 17.4915L8.79723 18.9814L10.1232 23.2446C10.8504 25.5971 11.549 27.8427 11.6773 28.2491C11.9268 29.0618 12.1977 29.4396 12.711 29.7034C13.0746 29.8887 13.7732 29.8959 14.1511 29.7176C14.3008 29.6464 15.4913 28.7125 16.8102 27.6431C18.6138 26.1746 19.2483 25.6969 19.3909 25.6969C19.5334 25.6969 20.7026 26.5096 23.6754 28.6697C25.921 30.3022 27.9028 31.7209 28.0739 31.8136C28.4589 32.0346 29.0363 32.0631 29.5211 31.8777C29.9203 31.7209 30.3694 31.2432 30.4906 30.8512C30.7259 30.0456 36.4932 2.01454 36.4932 1.67235C36.4861 0.488941 35.3668 -0.280987 34.2119 0.0968494ZM34.9676 1.62245C34.9961 1.69374 29.1718 29.9173 29.0363 30.345C29.0149 30.4163 28.9508 30.4733 28.8937 30.4733C28.8367 30.4733 26.9761 29.1473 24.7447 27.5291C22.5205 25.9179 20.5244 24.4993 20.3034 24.3923C20.0039 24.2426 19.8043 24.1927 19.4764 24.1927C18.571 24.1856 18.6637 24.1285 15.5412 26.6807C14.4291 27.5932 13.4809 28.3346 13.431 28.3346C13.3811 28.3346 13.3099 28.2491 13.2671 28.135C13.2243 28.0281 12.4972 25.7112 11.6488 22.9879C10.5082 19.3165 10.0662 17.9905 9.94499 17.8693C9.84518 17.7624 8.45504 17.2135 5.86723 16.2511C3.71428 15.4455 1.8465 14.7397 1.72531 14.6827C1.48292 14.5758 1.41876 14.4118 1.5756 14.3405C2.1673 14.0767 34.711 1.5369 34.8036 1.5369C34.8749 1.52977 34.9462 1.57254 34.9676 1.62245Z" fill="#F3AE9F"/>
<path d="M27.3335 6.47026C25.8222 7.35425 12.2344 15.7807 12.0562 15.9518C11.5714 16.4151 11.2577 17.2635 11.3647 17.8481C11.4431 18.2829 13.0471 23.9362 13.1541 24.1429C13.2111 24.2499 13.3679 24.421 13.5034 24.5279C13.8313 24.7703 14.3802 24.7988 14.7509 24.5849C15.1715 24.3497 15.2856 24.0075 15.5351 22.1397C15.6777 21.0347 15.806 20.3503 15.9058 20.1293C16.027 19.8299 16.9039 18.9958 22.4288 13.8559C26.7347 9.84938 28.8449 7.84614 28.909 7.68218C29.0374 7.38276 29.0374 7.22593 28.8948 6.87661C28.6667 6.32055 27.9324 6.12807 27.3335 6.47026ZM23.6978 10.5765C23.6194 10.6478 21.6945 12.4301 19.4204 14.5402C17.1463 16.6504 15.1502 18.5396 14.9862 18.7392C14.8151 18.9388 14.6012 19.2739 14.5014 19.4806C14.3375 19.8299 14.1093 20.8494 14.1093 21.27C14.1093 21.3698 14.0808 21.4981 14.0523 21.548C13.9881 21.6478 12.8974 17.8695 12.8974 17.5486C12.8974 17.4417 12.983 17.2635 13.097 17.1423C13.2396 16.9783 23.6265 10.491 23.8047 10.4482C23.819 10.4411 23.7762 10.4981 23.6978 10.5765Z" fill="#F3AE9F"/>
<path d="M29.7927 15.9159C29.5717 16.144 29.3935 16.7928 29.4719 17.135C29.5717 17.5912 30.1349 17.8336 30.5698 17.6055C30.8692 17.4558 31.0261 17.0922 31.0332 16.5147C31.0403 16.1013 31.0189 16.0442 30.8407 15.8874C30.5484 15.6308 30.0636 15.645 29.7927 15.9159Z" fill="#F3AE9F"/>
<path d="M29.0568 19.2811C28.957 19.3951 28.8572 19.552 28.8358 19.6161C28.8216 19.6874 28.4295 21.4697 27.9732 23.587C27.3887 26.296 27.1534 27.4936 27.189 27.6647C27.2318 27.9142 27.4885 28.1638 27.7665 28.235C28.0231 28.2992 28.3938 28.1424 28.5293 27.9142C28.6933 27.6291 30.3899 19.8229 30.3329 19.5948C30.2474 19.2526 29.9765 19.0672 29.5844 19.0672C29.285 19.0672 29.2065 19.0957 29.0568 19.2811Z" fill="#F3AE9F"/>
</svg>
