<svg width="32" height="32" viewBox="0 0 32 32" fill="none" xmlns="http://www.w3.org/2000/svg">
<path d="M0.48504 0.0749989C0.51004 0.112499 3.25379 4.1125 6.58504 8.95625C9.91004 13.8 12.635 17.775 12.635 17.7875C12.635 17.8 1.39129 30.8937 0.52254 31.8875C0.43504 31.9937 0.50379 32 1.86004 32H3.29754L8.61004 25.8187L13.9288 19.6438L18.1725 25.8187L22.4163 32H27.1225C30.8725 32 31.8225 31.9812 31.7788 31.9187C31.7538 31.8813 28.9288 27.7562 25.4975 22.7625C22.06 17.7688 19.2413 13.65 19.2225 13.6062C19.1975 13.5312 20.7163 11.75 28.7413 2.41875L30.8288 0H29.3913H27.9538L22.935 5.8375C20.1725 9.04375 17.8975 11.6625 17.8788 11.65C17.86 11.6437 16.0475 9.0125 13.8475 5.81875L9.85379 0H5.14754C1.51629 0 0.45379 0.0187492 0.48504 0.0749989ZM17.9788 15.7312C23.2038 23.2125 27.585 29.4813 27.7163 29.6688L27.9538 30H25.8725L23.7913 29.9937L14.2913 16.4C9.06629 8.91875 4.68504 2.65 4.55379 2.4625L4.31004 2.125H6.39754L8.47879 2.13125L17.9788 15.7312Z" fill="#F3AE9F"/>
</svg>
